<?xml version="1.0" encoding="UTF-8"?>
<svg id="Capa_1" data-name="Capa 1" xmlns="http://www.w3.org/2000/svg" viewBox="0 0 20 20">
  <defs>
    <style>
      .cls-1 {
        fill: #fff;
      }
    </style>
  </defs>
  <path class="cls-1" d="M14.3,7.58c-.97-4.23-7.84-4.06-8.64.31-.2,1.12.1,2.7,1.12,3.36.1.07.36.24.42.06l.2-.86c0-.12-.14-.25-.2-.35-.53-.86-.46-2.01.02-2.87,1.21-2.14,4.82-2.01,5.5.49.35,1.3-.14,3.57-1.64,3.94-.77.19-1.59-.23-1.46-1.11.12-.81.86-2.17.47-2.93-.27-.53-.97-.55-1.4-.2-.68.56-.73,1.68-.4,2.45-.24,1.2-.56,2.39-.82,3.59-.06.42-.07.85-.05,1.28,0,.13.02.33.04.47h0v.02s0,.02,0,.03c0,.03.02.18.12.24.13.07.36,0,.49-.24.15-.25.31-.54.45-.85.34-.75.48-1.58.7-2.37.03,0,.02,0,.03.02.6.86,1.78.88,2.69.55,1.9-.7,2.78-3.13,2.35-5.01Z"/>
</svg>