<?xml version="1.0" encoding="UTF-8"?>
<svg id="Capa_1" data-name="Capa 1" xmlns="http://www.w3.org/2000/svg" viewBox="0 0 20 20">
  <defs>
    <style>
      .cls-1 {
        fill: #fff;
      }
    </style>
  </defs>
  <path class="cls-1" d="M14.32,6.69v2.29c-.45-.04-.88-.17-1.29-.34l-.79-.43v4.01c-.2,2.85-3.52,4.3-5.75,2.45-1.98-1.65-1.5-4.8.83-5.84.61-.27,1.24-.34,1.9-.25v1.93c-.88-.29-1.86.28-2.04,1.18-.32,1.61,1.71,2.57,2.76,1.34.13-.16.36-.57.36-.77v-7.71l.04-.04h1.35c.09.17.12.37.19.55.26.65.9,1.27,1.57,1.5.27.09.57.13.86.14Z"/>
</svg>