<?xml version="1.0" encoding="UTF-8"?>
<svg id="Capa_1" data-name="Capa 1" xmlns="http://www.w3.org/2000/svg" viewBox="0 0 20 20">
  <defs>
    <style>
      .cls-1 {
        fill: #fefefe;
      }
    </style>
  </defs>
  <path class="cls-1" d="M13.83,6.02c-.69-.67-1.72-1.21-2.66-1.4-4.5-.91-8.01,3.57-6.12,7.74.06.12.18.26.19.39-.21.95-.54,1.87-.74,2.82l2.85-.76c2.7,1.44,6.02.48,7.49-2.21,1.16-2.13.73-4.9-1.01-6.58ZM13.38,13.07c-1.53,1.71-3.9,1.89-5.84.78-.22-.04-1.6.45-1.67.4-.05-.04-.03-.07-.02-.12.03-.34.26-.85.33-1.2.11-.51-.25-.87-.43-1.34-1.35-3.57,2.1-7.18,5.72-5.92,3.13,1.09,4.1,4.93,1.91,7.39Z"/>
  <path class="cls-1" d="M8.79,7.23c.1.06.19.3.24.41.09.19.36.84.34,1.02-.05.4-.6.41-.38.88.24.5,1.01,1.17,1.49,1.44.17.09.41.23.6.2.18-.04.48-.71.71-.72.09,0,1.07.46,1.2.54.21.13.24.2.21.45-.07.66-.73,1.04-1.35,1.04-1.69,0-4.52-2.38-4.42-4.13.04-.61.65-1.58,1.36-1.12Z"/>
</svg>